<svg id="elements" xmlns="http://www.w3.org/2000/svg" width="860.88" height="860.88" viewBox="0 0 860.88 860.88"><defs><style>.cls-1{fill:#1d1349;}.cls-2{fill:#fff;}.cls-3{fill:#d478ff;}.cls-4{fill:#7e59f6;}.cls-5{fill:none;}.cls-6{fill:#503dc4;}</style></defs><rect class="cls-1" width="860.88" height="860.88"/><path class="cls-2" d="M335.25,268.17s77.9-88.26,213.32-13.46,81.09,168.81,81.09,168.81L487.84,508.9,358.63,520.15Z"/><path class="cls-3" d="M616.78,243.79l-2.59-19.64a46,46,0,0,0-38.67-39.43l-12.67-1.92,12.67-1.92a46,46,0,0,0,38.67-39.43l2.59-19.64,2.58,19.64A46,46,0,0,0,658,180.88l12.67,1.92L658,184.72a46,46,0,0,0-38.67,39.43Z"/><path class="cls-3" d="M257.52,743.68,254.93,724a46,46,0,0,0-38.67-39.43l-12.66-1.92,12.66-1.92a45.94,45.94,0,0,0,38.67-39.43l2.59-19.64,2.59,19.64a46,46,0,0,0,38.67,39.43l12.66,1.92-12.66,1.92A46,46,0,0,0,260.11,724Z"/><path class="cls-4" d="M513.93,193.39l-.93-2.71A39.14,39.14,0,0,0,490.62,167h0A39.18,39.18,0,0,0,513,143.37l.93-2.71.93,2.71A39.18,39.18,0,0,0,537.24,167h0a39.14,39.14,0,0,0-22.38,23.65Z"/><path class="cls-5" d="M210.41,547.5a243.94,243.94,0,0,1-15.89-58.68,4.47,4.47,0,0,0-7.16-2.84c-32,24.65-48.29,45.71-42.82,59C149.42,556.9,171,561,204,558.24a7.73,7.73,0,0,0,6.48-10.64Z"/><path class="cls-5" d="M633.51,300.53a4.5,4.5,0,0,0-2.92,7.19,243.65,243.65,0,0,1,31.12,54.53l.9,2.24a7.63,7.63,0,0,0,11.82,3.21c29.71-23.5,44.7-43.53,39.43-56.38C708,297.09,678.26,294.06,633.51,300.53Z"/><path class="cls-4" d="M667.51,485.72c-58.4,38.39-126,71.49-180.3,93.76a1178.76,1178.76,0,0,1-128,44c-30.59,8.54-32.34,51.72-2.31,62.06a242.85,242.85,0,0,0,171.83-5c6.82-2.8,13.41-5.9,19.83-9.22l19.73,48.08c101.1-85.89,111.1-190,111.17-227.22A7.69,7.69,0,0,0,667.51,485.72Z"/><path class="cls-3" d="M296.64,254.71A99.36,99.36,0,1,0,194.2,423.52,244.24,244.24,0,0,1,296.64,254.71Z"/><path class="cls-2" d="M335.25,333.32a99.19,99.19,0,0,0-38.61-78.61A244.24,244.24,0,0,0,194.2,423.52a99.36,99.36,0,0,0,141.05-90.2Z"/><path class="cls-6" d="M753.75,308.47c-11.88-29-67-36.55-144.24-25.12-67.46-68.16-171.86-92.8-266.08-54.12a244.13,244.13,0,0,0-46.79,25.48A99.36,99.36,0,0,1,194.2,423.52a242.68,242.68,0,0,0-2.08,31.13c-63,46.12-96.88,90.3-85,119.25,21.43,52.2,183.55,35.1,362.12-38.2S775.18,360.67,753.75,308.47ZM204,558.24C171,561,149.42,556.9,144.54,545c-5.47-13.32,10.86-34.38,42.82-59a4.47,4.47,0,0,1,7.16,2.84,243.94,243.94,0,0,0,15.89,58.68l0,.1A7.73,7.73,0,0,1,204,558.24ZM467.19,381.69a42.39,42.39,0,0,0-35.66,36.36l-2.38,18.11-2.39-18.11a42.38,42.38,0,0,0-35.65-36.36l-11.68-1.77,11.68-1.77a42.36,42.36,0,0,0,35.65-36.35l2.39-18.11,2.38,18.11a42.38,42.38,0,0,0,35.66,36.35l11.67,1.77Zm71.65,57.16-.92,2.71-.93-2.71a39.13,39.13,0,0,0-22.38-23.66A39.14,39.14,0,0,0,537,391.54l.93-2.72.92,2.72a39.18,39.18,0,0,0,22.39,23.65A39.17,39.17,0,0,0,538.84,438.85ZM375.11,251.14a207.3,207.3,0,0,1,53.55-7c86.86,0,161.2,53.45,192,129.24A385.61,385.61,0,0,0,375.11,251.14ZM674.43,367.7a7.63,7.63,0,0,1-11.82-3.21l-.9-2.24a243.65,243.65,0,0,0-31.12-54.53,4.5,4.5,0,0,1,2.92-7.19c44.75-6.47,74.51-3.44,80.35,10.79C719.13,324.17,704.14,344.2,674.43,367.7Z"/></svg>