<svg id="elements" xmlns="http://www.w3.org/2000/svg" width="860.88" height="860.88" viewBox="0 0 860.88 860.88"><defs><style>.cls-1{fill:#fff;}</style></defs><rect width="860.88" height="860.88"/><path class="cls-1" d="M616.78,243.79l-2.59-19.64a46,46,0,0,0-38.67-39.43l-12.67-1.92,12.67-1.92a46,46,0,0,0,38.67-39.43l2.59-19.64,2.58,19.64A46,46,0,0,0,658,180.88l12.67,1.92L658,184.72a46,46,0,0,0-38.67,39.43Z"/><path class="cls-1" d="M257.52,743.68,254.93,724a46,46,0,0,0-38.67-39.43l-12.66-1.92,12.66-1.92a45.94,45.94,0,0,0,38.67-39.43l2.59-19.64,2.59,19.64a46,46,0,0,0,38.67,39.43l12.66,1.92-12.66,1.92A46,46,0,0,0,260.11,724Z"/><path class="cls-1" d="M513.93,193.39l-.93-2.71A39.14,39.14,0,0,0,490.62,167h0A39.18,39.18,0,0,0,513,143.37l.93-2.71.93,2.71A39.18,39.18,0,0,0,537.24,167h0a39.14,39.14,0,0,0-22.38,23.65Z"/><path class="cls-1" d="M667.51,485.72c-58.4,38.39-126,71.49-180.3,93.76a1178.76,1178.76,0,0,1-128,44c-30.59,8.54-32.34,51.72-2.31,62.06a242.85,242.85,0,0,0,171.83-5c6.82-2.8,13.41-5.9,19.83-9.22l19.73,48.08c101.1-85.89,111.1-190,111.17-227.22A7.69,7.69,0,0,0,667.51,485.72Z"/><path class="cls-1" d="M296.64,254.71A99.36,99.36,0,1,0,194.2,423.52,244.24,244.24,0,0,1,296.64,254.71Z"/><path class="cls-1" d="M753.75,308.47c-11.88-29-67-36.55-144.24-25.12-67.46-68.16-171.86-92.8-266.08-54.12a244.13,244.13,0,0,0-46.79,25.48A99.36,99.36,0,0,1,194.2,423.52a242.72,242.72,0,0,0-2.08,31.14c-63,46.11-96.88,90.29-85,119.24,21.43,52.2,183.55,35.1,362.12-38.2S775.18,360.67,753.75,308.47ZM211,551.23a6.44,6.44,0,0,1-.13.88,7.73,7.73,0,0,1-6.08,6,7.35,7.35,0,0,1-.82.11c-28.88,2.4-49-.43-56.83-9.13a14.11,14.11,0,0,1-2.6-4.09,13.55,13.55,0,0,1-.77-2.59,15.56,15.56,0,0,1-.27-2.76c-.05-7.12,4.51-15.83,13.06-25.7.57-.66,1.16-1.32,1.76-2,7.27-8,17.05-16.75,29-26a4.47,4.47,0,0,1,6.93,2,4.74,4.74,0,0,1,.23.84q.45,3.12,1,6.24,1.74,10.47,4.44,20.88c1.47,5.7,3.13,11.38,5,17l.13.36q2.41,7.13,5.3,14.17l0,.1A7.7,7.7,0,0,1,211,551.23ZM467.19,381.69a42.39,42.39,0,0,0-35.66,36.36l-2.38,18.11-2.39-18.11a42.38,42.38,0,0,0-35.65-36.36l-11.68-1.77,11.68-1.77a42.36,42.36,0,0,0,35.65-36.35l2.39-18.11,2.38,18.11a42.38,42.38,0,0,0,35.66,36.35l11.67,1.77Zm71.65,57.15-.92,2.72-.93-2.72a39.14,39.14,0,0,0-22.38-23.65A39.14,39.14,0,0,0,537,391.54l.93-2.72.92,2.72a39.18,39.18,0,0,0,22.39,23.65A39.18,39.18,0,0,0,538.84,438.84ZM375.11,251.14a207.3,207.3,0,0,1,53.55-7c86.86,0,161.2,53.45,192,129.24A385.61,385.61,0,0,0,375.11,251.14Zm339,71.11c-3,10.67-14.19,24.07-32,39.12-2.46,2.08-5,4.19-7.71,6.33a7.63,7.63,0,0,1-11.82-3.21l-.9-2.24c-1.72-4.18-3.57-8.28-5.49-12.31a243.18,243.18,0,0,0-25.63-42.22,4.5,4.5,0,0,1,2.92-7.19c44.75-6.47,74.51-3.44,80.35,10.79A16.56,16.56,0,0,1,714.1,322.25Z"/></svg>