<svg id="elements" xmlns="http://www.w3.org/2000/svg" width="659.45" height="629.62" viewBox="0 0 659.45 629.62"><defs><style>.cls-1{fill:#fff;}.cls-2{fill:#d478ff;}.cls-3{fill:#7e59f6;}.cls-4{fill:none;}.cls-5{fill:#503dc4;}</style></defs><polygon class="cls-1" points="463.79 333.83 273.7 333.83 273.7 189.26 245.87 136.05 307.25 105.36 463.79 145.14 539.75 245.71 463.79 297.04 463.79 333.83"/><path class="cls-2" d="M518.38,123.51l-2.62-19.89A46.52,46.52,0,0,0,476.61,63.7l-12.82-2,12.82-1.94a46.52,46.52,0,0,0,39.15-39.92L518.38,0,521,19.89a46.53,46.53,0,0,0,39.15,39.92L573,61.75l-12.83,2A46.53,46.53,0,0,0,521,103.62Z"/><path class="cls-2" d="M154.65,629.62,152,609.73a46.5,46.5,0,0,0-39.15-39.92l-12.82-1.95,12.82-1.94A46.51,46.51,0,0,0,152,526l2.62-19.89L157.27,526a46.53,46.53,0,0,0,39.16,39.92l12.82,1.94-12.82,1.95a46.52,46.52,0,0,0-39.16,39.92Z"/><path class="cls-3" d="M414.25,72.48l-.93-2.75a39.68,39.68,0,0,0-22.66-24h0a39.63,39.63,0,0,0,22.66-24l.93-2.74.94,2.74a39.63,39.63,0,0,0,22.66,24h0a39.68,39.68,0,0,0-22.66,24Z"/><path class="cls-4" d="M107,431a246.57,246.57,0,0,1-16.09-59.4,4.53,4.53,0,0,0-7.26-2.88c-32.35,25-48.88,46.28-43.34,59.77,4.94,12,26.74,16.16,60.17,13.39A7.82,7.82,0,0,0,107,431.09Z"/><path class="cls-4" d="M535.32,181a4.56,4.56,0,0,0-3,7.28,247.07,247.07,0,0,1,31.5,55.21c.31.75.62,1.51.92,2.27a7.73,7.73,0,0,0,12,3.25c30.07-23.8,45.26-44.08,39.92-57.08C610.76,177.47,580.63,174.4,535.32,181Z"/><path class="cls-3" d="M569.75,368.45c-59.13,38.87-127.6,72.37-182.55,94.93a1197,1197,0,0,1-129.64,44.55c-31,8.64-32.74,52.36-2.34,62.82a245.83,245.83,0,0,0,174-5.08c6.9-2.83,13.58-6,20.07-9.33l20,48.67c102.35-87,112.47-192.38,112.54-230A7.78,7.78,0,0,0,569.75,368.45Z"/><path class="cls-2" d="M194.26,134.56A100.6,100.6,0,1,0,90.55,305.48,247.25,247.25,0,0,1,194.26,134.56Z"/><path class="cls-5" d="M657.07,189c-12-29.31-67.89-37-146.05-25.43-68.29-69-174-94-269.38-54.8a246.87,246.87,0,0,0-47.38,25.8A100.6,100.6,0,0,1,90.55,305.48,244.79,244.79,0,0,0,88.44,337C24.67,383.68-9.65,428.41,2.38,457.72c21.7,52.85,185.84,35.54,366.63-38.67S678.76,241.84,657.07,189ZM100.44,441.87c-33.43,2.77-55.23-1.36-60.17-13.39-5.54-13.49,11-34.81,43.34-59.77a4.53,4.53,0,0,1,7.26,2.88A246.57,246.57,0,0,0,107,431l0,.1A7.82,7.82,0,0,1,100.44,441.87ZM366.93,263.13a42.9,42.9,0,0,0-36.1,36.81l-2.41,18.33L326,299.94a42.88,42.88,0,0,0-36.1-36.81l-11.82-1.8,11.82-1.79A42.88,42.88,0,0,0,326,222.73l2.42-18.34,2.41,18.34a42.9,42.9,0,0,0,36.1,36.81l11.82,1.79ZM439.48,321l-.94,2.74-.93-2.74A39.62,39.62,0,0,0,414.94,297a39.67,39.67,0,0,0,22.67-24l.93-2.75.94,2.75a39.68,39.68,0,0,0,22.66,24A39.63,39.63,0,0,0,439.48,321ZM273.7,131a209.87,209.87,0,0,1,54.22-7.11c87.95,0,163.21,54.12,194.43,130.85A390.32,390.32,0,0,0,273.7,131ZM576.76,249a7.73,7.73,0,0,1-12-3.25c-.3-.76-.61-1.52-.92-2.27a247.07,247.07,0,0,0-31.5-55.21,4.56,4.56,0,0,1,3-7.28c45.31-6.55,75.44-3.48,81.36,10.93C622,204.88,606.83,225.16,576.76,249Z"/><path class="cls-1" d="M233.35,214.25a100.4,100.4,0,0,0-39.09-79.58A247.23,247.23,0,0,0,90.55,305.59a100.62,100.62,0,0,0,142.8-91.34Z"/></svg>