<svg id="elements" xmlns="http://www.w3.org/2000/svg" width="659.45" height="629.62" viewBox="0 0 659.45 629.62"><defs><style>.cls-1{fill:#fff;}</style></defs><path class="cls-1" d="M518.38,123.51l-2.62-19.89A46.52,46.52,0,0,0,476.61,63.7l-12.82-2,12.82-1.94a46.52,46.52,0,0,0,39.15-39.92L518.38,0,521,19.89a46.53,46.53,0,0,0,39.15,39.92L573,61.75l-12.83,2A46.53,46.53,0,0,0,521,103.62Z"/><path class="cls-1" d="M154.65,629.62,152,609.73a46.5,46.5,0,0,0-39.15-39.92l-12.82-1.95,12.82-1.94A46.51,46.51,0,0,0,152,526l2.62-19.89L157.27,526a46.53,46.53,0,0,0,39.16,39.92l12.82,1.94-12.82,1.95a46.52,46.52,0,0,0-39.16,39.92Z"/><path class="cls-1" d="M414.25,72.48l-.93-2.75a39.68,39.68,0,0,0-22.66-24h0a39.63,39.63,0,0,0,22.66-24l.93-2.74.94,2.74a39.63,39.63,0,0,0,22.66,24h0a39.68,39.68,0,0,0-22.66,24Z"/><path class="cls-1" d="M569.75,368.45c-59.13,38.87-127.6,72.37-182.55,94.93a1197,1197,0,0,1-129.64,44.55c-31,8.64-32.74,52.36-2.34,62.82a245.83,245.83,0,0,0,174-5.08c6.9-2.83,13.58-6,20.07-9.33l20,48.67c102.35-87,112.47-192.38,112.54-230A7.78,7.78,0,0,0,569.75,368.45Z"/><path class="cls-1" d="M194.26,134.56A100.6,100.6,0,1,0,90.55,305.48,247.25,247.25,0,0,1,194.26,134.56Z"/><path class="cls-1" d="M657.07,189c-12-29.31-67.89-37-146.05-25.43-68.29-69-174-94-269.38-54.8a246.87,246.87,0,0,0-47.38,25.8,101,101,0,0,1,33,45c.66,1.8,1.26,3.62,1.82,5.46a100.56,100.56,0,0,1,4.28,29.1h0a100.62,100.62,0,0,1-142.8,91.34h0A244.79,244.79,0,0,0,88.44,337C24.67,383.68-9.65,428.42,2.38,457.72c21.7,52.85,185.84,35.54,366.63-38.67S678.76,241.84,657.07,189ZM100.44,441.87a192.54,192.54,0,0,1-27.77.55c-1.61-.1-3.16-.24-4.66-.39a64.55,64.55,0,0,1-15.35-3.29c-6.32-2.34-10.54-5.74-12.39-10.26a14.53,14.53,0,0,1-1.06-5.41,21,21,0,0,1,.95-6.11c1.27-4.28,3.83-9,7.57-14.06,1.87-2.53,4-5.16,6.49-7.86s5.19-5.5,8.19-8.36a277,277,0,0,1,21.2-18,4.58,4.58,0,0,1,6.31.7,4.33,4.33,0,0,1,1,2.18,247.46,247.46,0,0,0,10.59,44.7Q104,423.67,107,431l0,.1a7.69,7.69,0,0,1,.57,3.68A7.81,7.81,0,0,1,100.44,441.87ZM366.93,263.13a42.9,42.9,0,0,0-36.1,36.8l-2.41,18.34L326,299.93a42.88,42.88,0,0,0-36.1-36.8l-11.82-1.8,11.82-1.79A42.88,42.88,0,0,0,326,222.73l2.42-18.33,2.41,18.33a42.9,42.9,0,0,0,36.1,36.81l11.82,1.79ZM439.48,321l-.94,2.74-.93-2.74A39.62,39.62,0,0,0,414.94,297a39.62,39.62,0,0,0,22.67-24l.93-2.75.94,2.75a39.63,39.63,0,0,0,22.66,24A39.63,39.63,0,0,0,439.48,321Zm-165.78-190a210.3,210.3,0,0,1,54.22-7.1c87.95,0,163.21,54.12,194.43,130.85A390.33,390.33,0,0,0,273.7,130.94ZM587.33,240.21q-4.94,4.28-10.57,8.75a8.39,8.39,0,0,1-1.6,1,7.75,7.75,0,0,1-10.37-4.23c-.3-.76-.61-1.52-.92-2.27a247.07,247.07,0,0,0-31.5-55.21,4.56,4.56,0,0,1,3-7.28c45.31-6.55,75.44-3.48,81.36,10.93a14.32,14.32,0,0,1,1.05,5.21C618,208.16,607,223.06,587.33,240.21Z"/></svg>