<svg id="elements" xmlns="http://www.w3.org/2000/svg" width="1058.57" height="302.88" viewBox="0 0 1058.57 302.88"><defs><style>.cls-1{fill:#1d1349;}.cls-2{fill:#d478ff;}.cls-3{fill:#7e59f6;}.cls-4{fill:none;}.cls-5{fill:#fff;}.cls-6{fill:#503dc4;}</style></defs><path class="cls-1" d="M491.76,263.45h-4.63q-26.61,0-46.42-11.67A80.45,80.45,0,0,1,410,219.6q-10.89-20.5-10.9-46.93,0-26.59,10.9-47a80.54,80.54,0,0,1,30.72-32.09q19.82-11.67,46.42-11.67h4.63q26.61,0,46.34,11.67a80.72,80.72,0,0,1,30.63,32.09q10.89,20.41,10.9,47,0,26.43-10.9,46.93a80.64,80.64,0,0,1-30.63,32.18Q518.36,263.45,491.76,263.45Zm-4.46-37.07h4.29q19.4,0,30.72-14.67t11.33-39q0-24.54-11.33-39.13T491.59,119H487.3q-19.4,0-30.72,14.59t-11.32,39.13q0,24.36,11.32,39T487.3,226.38Z"/><path class="cls-1" d="M608.28,259.16v-173h43.07v28.66q16.49-33,46.85-32.95a79.47,79.47,0,0,1,15.62,1.54v41.36q-3.78-.69-9.35-1.2c-3.72-.34-7.07-.52-10.05-.52q-15.95,0-26.08,8.84T652.9,156.37V259.16Z"/><path class="cls-1" d="M737.84,259.16V8.61h44.62V109.17q18.36-27.28,51-27.28h4.63q21.8,0,38.53,11.32t26.34,31.67q9.62,20.33,9.61,47.62,0,27.45-9.61,47.88t-26.34,31.74q-16.74,11.33-38.53,11.33h-4.63q-33.3,0-52.51-26.77v22.48Zm83.57-32.78h3.27q19,0,30.29-14.16T866.2,172.5q0-25.4-11.23-39.47T824.68,119h-3.27a36.24,36.24,0,0,0-23,7.81,55,55,0,0,0-16,21v49.76q6,13.22,16,21A36.18,36.18,0,0,0,821.41,226.38Z"/><path class="cls-1" d="M1022,261.56q-32.61,0-49.25-15.61t-16.65-48.74V120H921.63V86.18h34.49V36.41h44.62V86.18H1056V120h-55.26v70.87q0,19.39,7.72,26.94t23.52,7.55a105.13,105.13,0,0,0,13.81-.85c4.29-.58,8.55-1.26,12.78-2.07v34.5a147.83,147.83,0,0,1-17.24,3.34A141.14,141.14,0,0,1,1022,261.56Z"/><path class="cls-2" d="M249.37,59.41l-1.26-9.56a22.39,22.39,0,0,0-18.83-19.21l-6.17-.93,6.17-.94a22.37,22.37,0,0,0,18.83-19.2L249.37,0l1.26,9.57a22.37,22.37,0,0,0,18.84,19.2l6.16.94-6.16.93a22.39,22.39,0,0,0-18.84,19.21Z"/><path class="cls-2" d="M74.4,302.88l-1.26-9.56A22.37,22.37,0,0,0,54.3,274.11l-6.16-.93,6.16-.94A22.37,22.37,0,0,0,73.14,253l1.26-9.56L75.66,253a22.37,22.37,0,0,0,18.83,19.21l6.17.94-6.17.93a22.37,22.37,0,0,0-18.83,19.21Z"/><path class="cls-3" d="M199.28,34.87l-.45-1.32A19.09,19.09,0,0,0,187.93,22h0a19.07,19.07,0,0,0,10.9-11.52l.45-1.32.45,1.32A19.07,19.07,0,0,0,210.63,22h0a19.09,19.09,0,0,0-10.9,11.53Z"/><path class="cls-4" d="M51.45,207.33a118.63,118.63,0,0,1-7.73-28.57,2.19,2.19,0,0,0-3.5-1.39c-15.56,12-23.51,22.27-20.85,28.76,2.38,5.78,12.87,7.77,29,6.44a3.76,3.76,0,0,0,3.15-5.19Z"/><path class="cls-4" d="M257.52,87.05a2.19,2.19,0,0,0-1.42,3.5,118.88,118.88,0,0,1,15.16,26.56c.14.36.29.73.44,1.09a3.7,3.7,0,0,0,5.75,1.56c14.47-11.44,21.78-21.2,19.21-27.45C293.81,85.37,279.32,83.9,257.52,87.05Z"/><path class="cls-3" d="M274.08,177.25c-28.44,18.69-61.38,34.81-87.81,45.66a574.63,574.63,0,0,1-62.37,21.43c-14.9,4.16-15.75,25.19-1.13,30.23a118.37,118.37,0,0,0,83.7-2.45c3.32-1.36,6.53-2.87,9.65-4.49l9.61,23.42c49.24-41.84,54.11-92.55,54.15-110.67A3.75,3.75,0,0,0,274.08,177.25Z"/><path class="cls-2" d="M93.45,64.73A48.39,48.39,0,1,0,43.56,147,118.93,118.93,0,0,1,93.45,64.73Z"/><path class="cls-5" d="M112.25,103a48.32,48.32,0,0,0-18.8-38.29A118.93,118.93,0,0,0,43.56,147,48.4,48.4,0,0,0,112.25,103Z"/><path class="cls-6" d="M316.09,90.91c-5.79-14.09-32.66-17.8-70.26-12.23a118.86,118.86,0,0,0-152.38-14A48.39,48.39,0,0,1,43.56,147a119.63,119.63,0,0,0-1,15.16c-30.67,22.46-47.18,44-41.4,58.08,10.44,25.43,89.4,17.1,176.37-18.6S326.52,116.34,316.09,90.91ZM48.32,212.57c-16.08,1.33-26.57-.66-28.95-6.44-2.66-6.49,5.29-16.75,20.85-28.76a2.18,2.18,0,0,1,3.49,1.39,119.12,119.12,0,0,0,7.74,28.57l0,0A3.76,3.76,0,0,1,48.32,212.57Zm128.2-86a20.64,20.64,0,0,0-17.37,17.71L158,153.11l-1.16-8.82a20.64,20.64,0,0,0-17.37-17.71l-5.69-.86,5.69-.87a20.62,20.62,0,0,0,17.37-17.7L158,98.33l1.16,8.82a20.62,20.62,0,0,0,17.37,17.7l5.68.87Zm34.9,27.83-.46,1.33-.45-1.33a19.07,19.07,0,0,0-10.9-11.52,19,19,0,0,0,10.9-11.52l.45-1.32.46,1.32a19,19,0,0,0,10.9,11.52A19,19,0,0,0,211.42,154.41ZM131.67,63a101,101,0,0,1,119.61,59.53A187.75,187.75,0,0,0,131.67,63Zm145.78,56.77a3.7,3.7,0,0,1-5.75-1.56c-.15-.36-.3-.73-.44-1.09A118.88,118.88,0,0,0,256.1,90.55a2.19,2.19,0,0,1,1.42-3.5c21.8-3.15,36.29-1.68,39.14,5.26C299.23,98.56,291.92,108.32,277.45,119.76Z"/></svg>