<svg id="elements" xmlns="http://www.w3.org/2000/svg" width="1058.58" height="302.88" viewBox="0 0 1058.58 302.88"><defs><style>.cls-1{fill:#fff;}</style></defs><path class="cls-1" d="M491.76,263.45h-4.63q-26.6,0-46.42-11.67A80.45,80.45,0,0,1,410,219.6q-10.89-20.5-10.9-46.93,0-26.61,10.9-47a80.54,80.54,0,0,1,30.72-32.09q19.82-11.67,46.42-11.67h4.63q26.61,0,46.34,11.67a80.72,80.72,0,0,1,30.63,32.09q10.89,20.41,10.9,47,0,26.43-10.9,46.93a80.64,80.64,0,0,1-30.63,32.18Q518.36,263.45,491.76,263.45Zm-4.46-37.07h4.29q19.4,0,30.72-14.67t11.33-39q0-24.54-11.33-39.13T491.59,119H487.3q-19.4,0-30.72,14.59t-11.32,39.13q0,24.36,11.32,39T487.3,226.38Z"/><path class="cls-1" d="M608.28,259.16v-173h43.07v28.66q16.49-33,46.85-32.95a79.47,79.47,0,0,1,15.62,1.54v41.36q-3.78-.69-9.35-1.2c-3.72-.34-7.07-.52-10-.52q-16,0-26.09,8.84T652.9,156.37V259.16Z"/><path class="cls-1" d="M737.84,259.16V8.61h44.62V109.17q18.36-27.28,51-27.28h4.63q21.8,0,38.53,11.32t26.34,31.67q9.6,20.33,9.61,47.62,0,27.45-9.61,47.88t-26.34,31.74q-16.74,11.33-38.53,11.33h-4.63q-33.3,0-52.51-26.77v22.48Zm83.58-32.78h3.26q19.05,0,30.29-14.16t11.24-39.72q0-25.4-11.24-39.47T824.68,119h-3.26a36.23,36.23,0,0,0-23,7.81,55.06,55.06,0,0,0-16,21v49.77q6,13.22,16,21A36.17,36.17,0,0,0,821.42,226.38Z"/><path class="cls-1" d="M1022,261.56q-32.6,0-49.25-15.61t-16.64-48.74V120h-34.5V86.18h34.5V36.41h44.62V86.18H1056V120h-55.25v70.87q0,19.39,7.72,26.94t23.51,7.55a103.38,103.38,0,0,0,13.81-.86q6.43-.86,12.79-2.06v34.5a148.43,148.43,0,0,1-17.25,3.34A141.25,141.25,0,0,1,1022,261.56Z"/><path class="cls-1" d="M249.37,59.41l-1.26-9.56a22.39,22.39,0,0,0-18.83-19.21l-6.17-.93,6.17-.94a22.37,22.37,0,0,0,18.83-19.2L249.37,0l1.26,9.57a22.37,22.37,0,0,0,18.84,19.2l6.16.94-6.16.93a22.39,22.39,0,0,0-18.84,19.21Z"/><path class="cls-1" d="M74.4,302.88l-1.26-9.56A22.37,22.37,0,0,0,54.3,274.11l-6.16-.93,6.16-.94A22.37,22.37,0,0,0,73.14,253l1.26-9.56L75.66,253a22.37,22.37,0,0,0,18.83,19.21l6.17.94-6.17.93a22.37,22.37,0,0,0-18.83,19.21Z"/><path class="cls-1" d="M199.28,34.87l-.45-1.32A19.09,19.09,0,0,0,187.93,22h0a19.07,19.07,0,0,0,10.9-11.52l.45-1.32.45,1.32A19.07,19.07,0,0,0,210.63,22h0a19.09,19.09,0,0,0-10.9,11.53Z"/><path class="cls-1" d="M274.08,177.25c-28.44,18.69-61.38,34.81-87.81,45.66a574.63,574.63,0,0,1-62.37,21.43c-14.9,4.16-15.75,25.19-1.13,30.23a118.37,118.37,0,0,0,83.7-2.45c3.32-1.36,6.53-2.87,9.65-4.49l9.61,23.42c49.24-41.84,54.11-92.55,54.15-110.67A3.75,3.75,0,0,0,274.08,177.25Z"/><path class="cls-1" d="M93.45,64.73A48.39,48.39,0,1,0,43.56,147,118.93,118.93,0,0,1,93.45,64.73Z"/><path class="cls-1" d="M316.09,90.91c-5.79-14.09-32.66-17.8-70.26-12.23a118.86,118.86,0,0,0-152.38-14,48.55,48.55,0,0,1,15.87,21.66c.32.86.61,1.74.88,2.63a48.62,48.62,0,0,1,2,14h0A48.4,48.4,0,0,1,43.56,147h0a119.63,119.63,0,0,0-1,15.16c-30.67,22.46-47.18,44-41.4,58.08,10.44,25.43,89.4,17.1,176.37-18.6S326.52,116.34,316.09,90.91ZM48.32,212.57a93.15,93.15,0,0,1-13.36.26c-.77-.05-1.52-.11-2.24-.19a31.26,31.26,0,0,1-7.39-1.58c-3-1.13-5.07-2.76-6-4.93a7.1,7.1,0,0,1-.51-2.61,10.19,10.19,0,0,1,.46-2.94A22.64,22.64,0,0,1,23,193.82,48.49,48.49,0,0,1,26.08,190c1.18-1.31,2.5-2.65,3.94-4a132.33,132.33,0,0,1,10.2-8.65,2.21,2.21,0,0,1,3,.34,2,2,0,0,1,.45,1,119.61,119.61,0,0,0,5.1,21.5q1.2,3.56,2.64,7.07l0,0a3.77,3.77,0,0,1-3.15,5.19Zm128.2-86a20.64,20.64,0,0,0-17.37,17.71L158,153.11l-1.16-8.82a20.64,20.64,0,0,0-17.37-17.71l-5.69-.86,5.69-.87a20.62,20.62,0,0,0,17.37-17.7L158,98.33l1.16,8.82a20.62,20.62,0,0,0,17.37,17.7l5.68.87Zm34.9,27.83-.46,1.32-.45-1.32a19.07,19.07,0,0,0-10.9-11.52,19,19,0,0,0,10.9-11.52l.45-1.32.46,1.32a19,19,0,0,0,10.9,11.52A19,19,0,0,0,211.42,154.41ZM131.67,63a101,101,0,0,1,119.61,59.53A187.8,187.8,0,0,0,131.67,63Zm150.87,52.56q-2.37,2.07-5.09,4.21a3.25,3.25,0,0,1-.77.47,3.71,3.71,0,0,1-5-2c-.15-.36-.3-.73-.44-1.09A118.88,118.88,0,0,0,256.1,90.55a2.34,2.34,0,0,1-.44-1.08,2.19,2.19,0,0,1,1.86-2.42c21.8-3.15,36.29-1.68,39.14,5.25a6.81,6.81,0,0,1,.5,2.51C297.27,100.14,292,107.31,282.54,115.55Z"/></svg>